Coordinates
version=1
nRows=10
nColumns=40
inDegrees=yes

Units are S.I. units (second, meters, Newtons, ...)
Angles are in degrees.

endheader
time	pelvis_tilt	pelvis_list	pelvis_rotation	pelvis_tx	pelvis_ty	pelvis_tz	hip_flexion_r	hip_adduction_r	hip_rotation_r	knee_angle_r	knee_angle_r_beta	ankle_angle_r	subtalar_angle_r	mtp_angle_r	hip_flexion_l	hip_adduction_l	hip_rotation_l	knee_angle_l	knee_angle_l_beta	ankle_angle_l	subtalar_angle_l	mtp_angle_l	lumbar_extension	lumbar_bending	lumbar_rotation	arm_flex_r	arm_add_r	arm_rot_r	elbow_flex_r	pro_sup_r	wrist_flex_r	wrist_dev_r	arm_flex_l	arm_add_l	arm_rot_l	elbow_flex_l	pro_sup_l	wrist_flex_l	wrist_dev_l
     52.41250000	     -5.92696387	     -4.05865671	     -6.93726216	      1.03749241	      0.92658699	      0.49086257	     18.50860611	      3.80318896	     -3.83991825	     20.22123769	     20.22123769	      9.68151281	      0.34863785	     -2.24855217	      0.79636921	     -8.52923595	    -13.55261538	     16.38554664	     16.38554664	     18.53042091	     -6.15517294	      1.42870884	     -7.42109766	      6.81055883	      1.45922719	    -13.20466843	    -14.31343885	     -4.03468364	     25.93091875	     45.81296548	      0.00000000	      0.00000000	     36.53369675	    -18.57743376	    -10.78980644	     70.38558892	     47.69458112	      0.00000000	      0.00000000
     52.43485714	     -6.00674844	     -4.22657264	     -6.47676709	      1.03882276	      0.92676765	      0.49501384	     17.93677162	      4.15422576	     -4.30463822	     19.85225554	     19.85225554	     10.01726995	      0.46215461	     -2.23482307	      1.18831512	     -9.17874035	    -12.95658974	     17.57531139	     17.57531139	     18.41617857	     -6.54597218	      1.45821709	     -7.41576292	      6.83780815	      1.50528964	    -12.49234693	    -14.45252522	     -4.01904706	     26.05981571	     45.81873808	      0.00000000	      0.00000000	     35.59429672	    -18.07042084	    -10.53570438	     69.95417678	     47.66205364	      0.00000000	      0.00000000
     52.45721429	     -6.03110232	     -4.38505399	     -6.01815258	      1.03998130	      0.92691714	      0.49898750	     17.35258519	      4.48180080	     -4.77868166	     19.53991323	     19.53991323	     10.35253871	      0.59494264	     -2.25558984	      1.77833328	     -9.86201195	    -12.32083417	     19.19883464	     19.19883464	     18.29682339	     -6.99003831	      1.32775781	     -7.44985602	      6.85715020	      1.53466270	    -11.61039233	    -14.59434655	     -4.01255058	     26.18734244	     45.82653012	      0.00000000	      0.00000000	     34.47627370	    -17.63284843	    -10.18421234	     69.36175766	     47.61861986	      0.00000000	      0.00000000
     52.47957143	     -6.04952711	     -4.56065543	     -5.53536402	      1.04091014	      0.92693077	      0.50279918	     16.79115982	      4.82561968	     -5.27000640	     19.24878254	     19.24878254	     10.67304015	      0.69584255	     -2.28615125	      2.65776374	    -10.60141826	    -11.56480243	     21.29603969	     21.29603969	     18.13874368	     -7.60415029	      1.01235813	     -7.50727260	      6.87419573	      1.51097648	    -10.54701056	    -14.72591586	     -4.00821908	     26.29129404	     45.83765474	      0.00000000	      0.00000000	     33.16222392	    -17.19756497	     -9.73003173	     68.56521024	     47.56293456	      0.00000000	      0.00000000
     52.50192857	     -5.97970982	     -4.73410504	     -5.04266213	      1.04169955	      0.92691823	      0.50639601	     16.19886979	      5.15985572	     -5.70123926	     19.04912635	     19.04912635	     11.02582373	      0.69824500	     -2.34173765	      3.71702905	    -11.34091567	    -10.66451900	     23.82005148	     23.82005148	     17.83044553	     -8.41833097	      0.50803803	     -7.63789586	      6.88609872	      1.51378628	     -9.29668703	    -14.85030505	     -4.00739763	     26.41575064	     45.84957692	      0.00000000	      0.00000000	     31.68696214	    -16.71909136	     -9.22151320	     67.57754480	     47.49900469	      0.00000000	      0.00000000
     52.52428571	     -6.00582464	     -4.84936375	     -4.48841758	      1.04229690	      0.92657082	      0.50978939	     15.86871107	      5.44101273	     -6.05411799	     19.09885129	     19.09885129	     11.40739704	      0.37570477	     -2.39179478	      5.18060362	    -11.98886759	     -9.44695500	     26.72178716	     26.72178716	     16.96106680	     -9.76149562	     -0.87660802	     -7.51518042	      6.83510173	      1.17183459	     -7.36312321	    -14.85986880	     -3.92617824	     25.62740357	     45.91877386	      0.00000000	      0.00000000	     30.06290351	    -16.57033835	     -8.13666661	     65.48985099	     47.37334779	      0.00000000	      0.00000000
     52.54664286	     -5.78742630	     -5.11798437	     -3.92911226	      1.04288327	      0.92635535	      0.51308555	     15.20973380	      5.87568012	     -6.43206021	     19.02806228	     19.02806228	     11.78546663	      0.15174691	     -2.44233264	      6.69098011	    -12.82061452	     -8.22686838	     30.17554483	     30.17554483	     16.15052996	    -10.95263025	     -1.82798758	     -7.78700373	      6.91106366	      1.29300832	     -5.85188366	    -14.94170839	     -3.94920582	     25.88182694	     45.93033508	      0.00000000	      0.00000000	     28.32533185	    -15.79641448	     -7.60110233	     64.22878823	     47.30086501	      0.00000000	      0.00000000
     52.56900000	     -5.59630676	     -5.35797872	     -3.32495070	      1.04330929	      0.92581650	      0.51619351	     14.76311534	      6.28439924	     -6.71435843	     19.24833335	     19.24833335	     12.18918880	     -0.39737350	     -2.50646744	      8.55036564	    -13.57140344	     -6.78532094	     34.04588935	     34.04588935	     14.88998098	    -12.41588742	     -3.05788745	     -7.93367325	      6.96141107	      1.16949253	     -4.01414707	    -14.96760355	     -3.97570110	     26.20763051	     45.94220263	      0.00000000	      0.00000000	     26.40132579	    -15.17597939	     -6.98161825	     62.30990499	     47.21112497	      0.00000000	      0.00000000
     52.59135714	     -5.45868399	     -5.48876790	     -2.71217583	      1.04353703	      0.92494743	      0.51915582	     14.55991190	      6.61393097	     -6.72424526	     19.75559238	     19.75559238	     12.67544777	     -1.44718398	     -2.50311570	     10.65338694	    -14.09459283	     -5.18744402	     38.04339809	     38.04339809	     12.72595086	    -14.43166092	     -5.17667142	     -7.92080186	      6.85997492	      0.81035963	     -1.73321780	    -14.83976897	     -3.96879423	     26.31684484	     45.96980431	      0.00000000	      0.00000000	     24.49837961	    -14.70462767	     -6.12321005	     59.11903337	     47.08601183	      0.00000000	      0.00000000
     52.61371429	     -4.99963935	     -5.76935520	     -2.07921609	      1.04397840	      0.92424711	      0.52216327	     14.00843231	      7.12505423	     -6.70371684	     20.28456301	     20.28456301	     13.27635013	     -2.57017559	     -2.16477174	     12.42594423	    -14.83175776	     -3.83904084	     41.92587643	     41.92587643	      9.17443291	    -16.68176681	     -9.97659071	     -8.22312815	      6.85926808	      1.22593809	      0.58659783	    -14.74121666	     -4.00081486	     25.49028391	     46.06395229	      0.00000000	      0.00000000	     23.58450668	    -13.67303096	     -4.66087736	     54.22189627	     46.90363728	      0.00000000	      0.00000000
